<svg width="61.543mm" height="467.33mm" version="1.1" viewBox="0 0 61.543 467.33" xmlns="http://www.w3.org/2000/svg" xmlns:xlink="http://www.w3.org/1999/xlink">
 <defs>
  <linearGradient id="b" x1="27.121" x2="57.256" y1="403.97" y2="404.76" gradientUnits="userSpaceOnUse" xlink:href="#c"/>
  <linearGradient id="c">
   <stop stop-color="#85663c" offset="0"/>
   <stop stop-color="#584429" offset="1"/>
  </linearGradient>
  <linearGradient id="a" x1="27.061" x2="51.026" y1="556.88" y2="556.88" gradientUnits="userSpaceOnUse" xlink:href="#d"/>
  <linearGradient id="d">
   <stop stop-color="#c20015" offset="0"/>
   <stop stop-color="#7d010e" offset="1"/>
  </linearGradient>
 </defs>
 <g transform="translate(-70.526 69.625)">
  <g transform="translate(26.667 -243.32)">
   <g transform="rotate(1.4402 -73.34 1346.5)">
    <path d="m48.667 172.05c0.28964 0 1.9171 450.25 2.821 458.32 0.91626 8.1825-24.439 10.443-24.366 0.0441l3.194-458.21c0.4815-2.5455 18.702-1.7975 18.351-0.15318z" fill="url(#b)" stop-color="#000000"/>
    <path d="m27.061 581.82 0.81124-52.944c6.4574 1.9532 12.757 4.2017 22.633-0.22312l0.52156 53.364c-8.5713 3.8528-16.655 4.4263-23.966-0.1977z" fill="url(#a)"/>
   </g>
   <g transform="rotate(-1.601 191.75 -1158)">
    <path d="m48.667 172.05c0.28964 0 1.9171 450.25 2.821 458.32 0.91626 8.1825-24.439 10.443-24.366 0.0441l3.194-458.21c0.4815-2.5455 18.702-1.7975 18.351-0.15318z" fill="url(#b)" stop-color="#000000"/>
    <path d="m27.061 581.82 0.81124-52.944c6.4574 1.9532 12.757 4.2017 22.633-0.22312l0.52156 53.364c-8.5713 3.8528-16.655 4.4263-23.966-0.1977z" fill="url(#a)"/>
   </g>
  </g>
 </g>
</svg>
